<svg width="93" height="136" viewBox="0 0 93 136" fill="none" xmlns="http://www.w3.org/2000/svg">
<g clip-path="url(#clip0_2667_5026)">
<mask id="mask0_2667_5026" style="mask-type:luminance" maskUnits="userSpaceOnUse" x="-31" y="-8" width="151" height="151">
<path d="M120 -8H-31V143H120V-8Z" fill="white"/>
</mask>
<g mask="url(#mask0_2667_5026)">
<mask id="mask1_2667_5026" style="mask-type:luminance" maskUnits="userSpaceOnUse" x="-31" y="-8" width="151" height="151">
<path d="M-31 -8H120V143H-31V-8Z" fill="white"/>
</mask>
<g mask="url(#mask1_2667_5026)">
<path d="M9.3558 111.925C21.6907 132.094 48.2904 138.594 68.7724 126.411C89.2291 114.237 95.7901 88.0479 83.4711 67.8821L83.4701 67.8815L45.1666 5.22021L9.7164 67.3679L9.6906 67.4131L9.663 67.4571C1.4017 80.6339 0.693199 97.754 9.3558 111.925Z" fill="#4AFFC9"/>
<path d="M9.3558 111.925C21.6907 132.094 48.2904 138.594 68.7724 126.411C89.2291 114.237 95.7901 88.0479 83.4711 67.8821L83.4701 67.8815L45.1666 5.22021L9.7164 67.3679L9.6906 67.4131L9.663 67.4571C1.4017 80.6339 0.693199 97.754 9.3558 111.925ZM9.3558 111.925L7.223 113.229" stroke="#083863" stroke-width="5"/>
</g>
<path d="M64.0637 100.328C62.1437 101.949 59.6264 103.229 56.5117 104.168C53.397 105.064 50.005 105.512 46.3357 105.512C42.2397 105.512 38.7624 104.979 35.9037 103.912C33.045 102.803 30.8904 101.288 29.4397 99.368C27.989 97.448 27.2637 95.229 27.2637 92.712C27.2637 90.152 27.989 87.9547 29.4397 86.12C30.933 84.2427 32.853 82.8987 35.1997 82.088C33.3224 81.2347 31.8504 79.9547 30.7837 78.248C29.717 76.4987 29.1837 74.4933 29.1837 72.232C29.1837 69.8853 29.845 67.7733 31.1677 65.896C32.533 64.0187 34.581 62.5253 37.3117 61.416C40.0424 60.264 43.3704 59.688 47.2957 59.688C50.069 59.688 52.757 59.9867 55.3597 60.584C58.005 61.1813 60.2877 62.0347 62.2077 63.144L60.3517 68.264C56.5117 66.216 52.245 65.192 47.5517 65.192C43.669 65.192 40.7037 65.896 38.6557 67.304C36.6077 68.6693 35.5837 70.4613 35.5837 72.68C35.5837 74.8987 36.373 76.6053 37.9517 77.8C39.5304 78.9947 41.7917 79.592 44.7357 79.592H56.2557V85.096H44.4797C41.109 85.096 38.4637 85.6933 36.5437 86.888C34.6237 88.0827 33.6637 89.8747 33.6637 92.264C33.6637 94.696 34.7517 96.595 36.9277 97.96C39.1037 99.325 42.3464 100.008 46.6557 100.008C49.6424 100.008 52.4797 99.603 55.1677 98.792C57.8984 97.939 60.1384 96.787 61.8877 95.336L64.0637 100.328Z" fill="#083863"/>
<path d="M41.5 61V50" stroke="#083863" stroke-width="5"/>
<path d="M50.5 61V50" stroke="#083863" stroke-width="5"/>
<path d="M50.5 115V104" stroke="#083863" stroke-width="5"/>
<path d="M41.5 115V104" stroke="#083863" stroke-width="5"/>
</g>
</g>
<defs>
<clipPath id="clip0_2667_5026">
<rect width="93" height="136" fill="white"/>
</clipPath>
</defs>
</svg>
