<svg width="27" height="27" viewBox="0 0 27 27" fill="none" xmlns="http://www.w3.org/2000/svg">
<path id="Vector" d="M23.1266 0.664577L13.5 10.2911L3.87343 0.664577C3.44791 0.239056 2.87078 1.5301e-06 2.269 1.5301e-06C1.66723 1.5301e-06 1.0901 0.239056 0.664575 0.664577C0.239054 1.0901 0 1.66723 0 2.269C0 2.87078 0.239054 3.44791 0.664575 3.87343L10.2911 13.5L0.664575 23.1266C0.239054 23.5521 0 24.1292 0 24.731C0 25.3328 0.239054 25.9099 0.664575 26.3354C1.0901 26.7609 1.66723 27 2.269 27C2.87078 27 3.44791 26.7609 3.87343 26.3354L13.5 16.7089L23.1266 26.3354C23.5521 26.7609 24.1292 27 24.731 27C25.3328 27 25.9099 26.7609 26.3354 26.3354C26.7609 25.9099 27 25.3328 27 24.731C27 24.1292 26.7609 23.5521 26.3354 23.1266L16.7089 13.5L26.3354 3.87343C26.7609 3.44791 27 2.87078 27 2.269C27 1.66723 26.7609 1.0901 26.3354 0.664577C25.9099 0.239056 25.3328 0 24.731 0C24.1292 0 23.5521 0.239056 23.1266 0.664577Z" fill="#201E1C"/>
</svg>
