<svg width="782" height="268" viewBox="0 0 782 268" fill="none" xmlns="http://www.w3.org/2000/svg">
<path d="M721.897 53.9028C719.053 37.3937 730.12 21.703 746.615 18.8567L780.554 13C783.398 29.5091 772.332 45.1998 755.837 48.0462L721.897 53.9028Z" fill="#195946"/>
<path d="M652 51.2647C659.37 36.2236 677.528 30.0102 692.556 37.3868L723.478 52.5647C716.108 67.6058 697.95 73.8192 682.922 66.4426L652 51.2647Z" fill="#195946"/>
<path d="M722.258 54.3636L735.811 60.1149C746.866 64.8062 755.336 74.0776 759.017 85.5168L764.964 104M780.554 13L746.615 18.8567C730.12 21.703 719.053 37.3937 721.897 53.9028L755.837 48.0462C772.332 45.1998 783.398 29.5091 780.554 13ZM723.478 52.5647L692.556 37.3868C677.528 30.0102 659.37 36.2236 652 51.2647L682.922 66.4426C697.95 73.8192 716.108 67.6058 723.478 52.5647Z" stroke="#195946" stroke-width="2"/>
<path d="M47.2245 123.02H123.785V146.56H47.2245V123.02ZM49.4245 189.02H136.325V213H20.8245V59H133.245V82.98H49.4245V189.02ZM228.873 213V189.24L227.333 184.18V142.6C227.333 134.533 224.913 128.3 220.073 123.9C215.233 119.353 207.9 117.08 198.073 117.08C191.473 117.08 184.946 118.107 178.493 120.16C172.186 122.213 166.833 125.073 162.433 128.74L151.653 108.72C157.96 103.88 165.44 100.287 174.093 97.94C182.893 95.4467 191.986 94.2 201.373 94.2C218.386 94.2 231.513 98.3067 240.753 106.52C250.14 114.587 254.833 127.127 254.833 144.14V213H228.873ZM191.913 214.54C183.113 214.54 175.413 213.073 168.813 210.14C162.213 207.06 157.08 202.88 153.413 197.6C149.893 192.173 148.133 186.087 148.133 179.34C148.133 172.74 149.673 166.8 152.753 161.52C155.98 156.24 161.186 152.06 168.373 148.98C175.56 145.9 185.093 144.36 196.973 144.36H231.073V162.62H198.953C189.566 162.62 183.26 164.16 180.033 167.24C176.806 170.173 175.193 173.84 175.193 178.24C175.193 183.227 177.173 187.187 181.133 190.12C185.093 193.053 190.593 194.52 197.633 194.52C204.38 194.52 210.393 192.98 215.673 189.9C221.1 186.82 224.986 182.273 227.333 176.26L231.953 192.76C229.313 199.653 224.546 205.007 217.653 208.82C210.906 212.633 202.326 214.54 191.913 214.54ZM282.126 213V95.52H308.306V127.86L305.226 118.4C308.746 110.48 314.246 104.467 321.726 100.36C329.353 96.2533 338.813 94.2 350.106 94.2V120.38C348.933 120.087 347.833 119.94 346.806 119.94C345.779 119.793 344.753 119.72 343.726 119.72C333.313 119.72 325.026 122.8 318.866 128.96C312.706 134.973 309.626 143.993 309.626 156.02V213H282.126ZM418.229 214.54C405.322 214.54 395.349 211.24 388.309 204.64C381.269 197.893 377.749 187.993 377.749 174.94V69.56H405.249V174.28C405.249 179.853 406.642 184.18 409.429 187.26C412.362 190.34 416.395 191.88 421.529 191.88C427.689 191.88 432.822 190.267 436.929 187.04L444.629 206.62C441.402 209.26 437.442 211.24 432.749 212.56C428.055 213.88 423.215 214.54 418.229 214.54ZM358.389 118.4V96.4H436.709V118.4H358.389ZM525.911 94.2C535.298 94.2 543.658 96.0333 550.991 99.7C558.471 103.367 564.338 109.013 568.591 116.64C572.844 124.12 574.971 133.8 574.971 145.68V213H547.471V149.2C547.471 138.787 544.978 131.013 539.991 125.88C535.151 120.747 528.331 118.18 519.531 118.18C513.078 118.18 507.358 119.5 502.371 122.14C497.384 124.78 493.498 128.74 490.711 134.02C488.071 139.153 486.751 145.68 486.751 153.6V213H459.251V49.76H486.751V127.2L480.811 117.52C484.918 110.04 490.858 104.32 498.631 100.36C506.551 96.2533 515.644 94.2 525.911 94.2ZM609.388 257.22C603.668 257.22 597.948 256.267 592.228 254.36C586.508 252.453 581.741 249.813 577.928 246.44L588.928 226.2C591.715 228.693 594.868 230.673 598.388 232.14C601.908 233.607 605.501 234.34 609.168 234.34C614.155 234.34 618.188 233.093 621.268 230.6C624.348 228.107 627.208 223.927 629.848 218.06L636.668 202.66L638.868 199.36L683.308 95.52H709.708L654.708 222.46C651.041 231.26 646.935 238.227 642.388 243.36C637.988 248.493 633.001 252.087 627.428 254.14C622.001 256.193 615.988 257.22 609.388 257.22ZM633.588 217.18L580.568 95.52H609.168L652.288 196.94L633.588 217.18Z" fill="#111111"/>
</svg>
