<svg width="35" height="35" viewBox="0 0 35 35" fill="none" xmlns="http://www.w3.org/2000/svg">
<g id="etherscan-logo 1" clip-path="url(#clip0_2177_2715)">
<g id="Layer_x0020_1">
<g id="circle">
<g id="Group_3">
<path id="Path_1" d="M7.28686 16.6441C7.28686 15.8362 7.95052 15.1726 8.757 15.1726H11.2366C12.0445 15.1726 12.7362 15.8362 12.7362 16.6735V26.0242C13.0246 25.9374 13.3705 25.8506 13.7751 25.7638C14.3226 25.6196 14.7272 25.1296 14.7272 24.5514V12.9494C14.7272 12.1416 15.3909 11.4486 16.2267 11.4486H18.7064C19.5143 11.4486 20.2059 12.1122 20.2059 12.9494V23.7156C20.2059 23.7156 20.8122 23.4552 21.4171 23.1962C21.8791 22.9946 22.1675 22.562 22.1675 22.0412V9.19873C22.1675 8.39091 22.8312 7.6979 23.6391 7.6979H26.1187C26.9266 7.6979 27.5903 8.36151 27.5903 9.19873V19.7913C29.7241 18.2331 31.9167 16.3571 33.6473 14.1058C34.1667 13.4422 34.3109 12.5756 34.0225 11.7678C30.8498 2.64801 20.8724 -2.20168 11.7589 0.973577C2.6454 4.14884 -2.19908 14.1338 0.972231 23.255C1.31807 24.2938 1.78011 25.2752 2.32757 26.2272C2.76021 26.9777 3.56809 27.4103 4.43337 27.3235C4.89542 27.2941 5.47228 27.2367 6.19195 27.1499C6.82621 27.0925 7.28826 26.5436 7.28826 25.908L7.28686 16.6441Z" fill="#195946"/>
<path id="Path_2" d="M7.22852 31.6526C15.0441 37.3381 25.975 35.6063 31.6553 27.7857C33.8185 24.7841 35.0003 21.1762 35.0003 17.4829C35.0003 17.0783 34.9709 16.6751 34.9429 16.2705C28.5708 25.8229 16.7747 30.296 7.22852 31.6526Z" fill="#979695"/>
</g>
</g>
</g>
</g>
<defs>
<clipPath id="clip0_2177_2715">
<rect width="35" height="35" fill="white"/>
</clipPath>
</defs>
</svg>
