<svg width="18" height="18" viewBox="0 0 18 18" fill="none" xmlns="http://www.w3.org/2000/svg">
<g id="exchange 1">
<path id="Vector" d="M10.4999 13.4986C10.6988 13.4986 10.8895 13.4196 11.0302 13.279C11.1708 13.1383 11.2499 12.9476 11.2499 12.7486L11.2499 4.05614L12.9674 5.78114C13.1086 5.92237 13.3001 6.00171 13.4999 6.00171C13.6996 6.00171 13.8911 5.92237 14.0324 5.78114C14.1736 5.63991 14.2529 5.44837 14.2529 5.24864C14.2529 5.04891 14.1736 4.85737 14.0324 4.71614L11.0324 1.71614C10.9269 1.61207 10.793 1.54157 10.6475 1.51354C10.502 1.48551 10.3514 1.50121 10.2149 1.55864C10.0779 1.6149 9.96065 1.71045 9.8779 1.83324C9.79515 1.95603 9.7506 2.10057 9.74986 2.24864L9.74986 12.7486C9.74986 12.9476 9.82888 13.1383 9.96953 13.279C10.1102 13.4196 10.3009 13.4986 10.4999 13.4986ZM7.78486 16.4386C7.92182 16.3824 8.03907 16.2868 8.12182 16.164C8.20457 16.0412 8.24912 15.8967 8.24986 15.7486L8.24986 5.24864C8.24986 5.04973 8.17084 4.85896 8.03019 4.71831C7.88954 4.57766 7.69877 4.49864 7.49986 4.49864C7.30095 4.49864 7.11018 4.57766 6.96953 4.71831C6.82888 4.85896 6.74986 5.04973 6.74986 5.24864L6.74986 13.9411L5.03236 12.2161C4.96264 12.1458 4.87969 12.09 4.78829 12.052C4.6969 12.0139 4.59887 11.9943 4.49986 11.9943C4.40085 11.9943 4.30282 12.0139 4.21143 12.052C4.12003 12.09 4.03708 12.1458 3.96736 12.2161C3.89706 12.2859 3.84127 12.3688 3.80319 12.4602C3.76511 12.5516 3.74551 12.6496 3.74551 12.7486C3.74551 12.8476 3.76511 12.9457 3.80319 13.0371C3.84127 13.1285 3.89706 13.2114 3.96736 13.2811L6.96736 16.2811C7.07283 16.3852 7.20676 16.4557 7.35225 16.4837C7.49774 16.5118 7.64828 16.4961 7.78486 16.4386Z" fill="black"/>
</g>
</svg>
