<svg width="141" height="54" viewBox="0 0 141 54" fill="none" xmlns="http://www.w3.org/2000/svg">
<path d="M124.423 12.3381C123.673 8.16545 126.59 4.19967 130.937 3.48025L139.883 2C140.632 6.17262 137.715 10.1384 133.368 10.8578L124.423 12.3381Z" fill="#003324"/>
<path d="M106 11.6713C107.943 7.86969 112.728 6.29928 116.689 8.1637L124.839 11.9999C122.897 15.8015 118.111 17.3719 114.15 15.5075L106 11.6713Z" fill="#003324"/>
<path d="M124.518 12.4545L128.09 13.9082C131.003 15.0939 133.236 17.4372 134.206 20.3284L135.774 25M139.883 2L130.937 3.48025C126.59 4.19967 123.673 8.16545 124.423 12.3381L133.368 10.8578C137.715 10.1384 140.632 6.17262 139.883 2ZM124.839 11.9999L116.689 8.1637C112.728 6.29928 107.943 7.86969 106 11.6713L114.15 15.5075C118.111 17.3719 122.897 15.8015 124.839 11.9999Z" stroke="#003324" stroke-width="2"/>
<path d="M4.71372 29.4189H18.3835V33.7306H4.71372V29.4189ZM5.10652 41.508H20.6225V45.9003H0V17.6925H20.0726V22.0848H5.10652V41.508Z" fill="#201E1C"/>
<path d="M37.147 45.9003V41.5483L36.8721 40.6214V33.0053C36.8721 31.5277 36.44 30.386 35.5758 29.5801C34.7116 28.7473 33.4023 28.3309 31.6477 28.3309C30.4693 28.3309 29.3039 28.5189 28.1517 28.895C27.0256 29.2711 26.0698 29.795 25.2842 30.4666L23.3594 26.7996C24.4855 25.913 25.821 25.2549 27.3661 24.825C28.9373 24.3683 30.5609 24.14 32.2369 24.14C35.2746 24.14 37.6184 24.8922 39.2682 26.3966C40.9442 27.8742 41.7822 30.1711 41.7822 33.2874V45.9003H37.147ZM30.5478 46.1824C28.9766 46.1824 27.6018 45.9137 26.4233 45.3765C25.2449 44.8123 24.3283 44.0467 23.6737 43.0795C23.0452 42.0855 22.7309 40.9707 22.7309 39.7349C22.7309 38.526 23.0059 37.438 23.5558 36.4708C24.1319 35.5037 25.0616 34.7381 26.3448 34.1739C27.628 33.6098 29.3301 33.3277 31.4513 33.3277H37.5398V36.6723H31.8048C30.1288 36.6723 29.0028 36.9544 28.4267 37.5186C27.8505 38.0559 27.5625 38.7275 27.5625 39.5334C27.5625 40.4468 27.916 41.1721 28.6231 41.7094C29.3301 42.2467 30.3121 42.5154 31.5691 42.5154C32.7738 42.5154 33.8474 42.2333 34.7902 41.6691C35.7591 41.105 36.4531 40.2722 36.8721 39.1707L37.697 42.193C37.2256 43.4556 36.3745 44.4362 35.1437 45.1347C33.9391 45.8332 32.4071 46.1824 30.5478 46.1824Z" fill="#201E1C"/>
<path d="M46.6553 45.9003V24.3818H51.3298V30.3054L50.7798 28.5726C51.4083 27.122 52.3903 26.0205 53.7259 25.2683C55.0876 24.5161 56.7767 24.14 58.7931 24.14V28.9353C58.5836 28.8816 58.3872 28.8547 58.2039 28.8547C58.0206 28.8279 57.8373 28.8144 57.654 28.8144C55.7947 28.8144 54.3151 29.3786 53.2152 30.5069C52.1154 31.6083 51.5654 33.2605 51.5654 35.4634V45.9003H46.6553Z" fill="#201E1C"/>
<path d="M70.9564 46.1824C68.652 46.1824 66.8712 45.5779 65.6142 44.369C64.3572 43.1333 63.7287 41.3199 63.7287 38.929V19.6267H68.6389V38.8081C68.6389 39.8289 68.8876 40.6214 69.3852 41.1856C69.909 41.7497 70.6291 42.0318 71.5457 42.0318C72.6455 42.0318 73.5621 41.7363 74.2953 41.1453L75.6702 44.7317C75.094 45.2153 74.387 45.5779 73.549 45.8197C72.711 46.0615 71.8468 46.1824 70.9564 46.1824ZM60.272 28.5726V24.5429H74.256V28.5726H60.272Z" fill="#201E1C"/>
<path d="M90.1831 24.14C91.8591 24.14 93.3517 24.4758 94.6611 25.1474C95.9967 25.819 97.0442 26.8533 97.8036 28.2503C98.563 29.6204 98.9427 31.3934 98.9427 33.5695V45.9003H94.0326V34.2142C94.0326 32.3068 93.5874 30.883 92.6971 29.9427C91.8329 29.0025 90.6152 28.5323 89.0439 28.5323C87.8917 28.5323 86.8704 28.7741 85.98 29.2577C85.0896 29.7413 84.3957 30.4666 83.8981 31.4337C83.4268 32.374 83.1911 33.5695 83.1911 35.0201V45.9003H78.2809V16H83.1911V30.1845L82.1305 28.4115C82.8637 27.0414 83.9243 25.9936 85.3122 25.2683C86.7263 24.5161 88.35 24.14 90.1831 24.14Z" fill="#201E1C"/>
<path d="M105.088 54C104.067 54 103.045 53.8254 102.024 53.4761C101.003 53.1269 100.152 52.6433 99.4707 52.0255L101.435 48.3181C101.932 48.7748 102.495 49.1375 103.124 49.4062C103.752 49.6748 104.394 49.8091 105.049 49.8091C105.939 49.8091 106.659 49.5808 107.209 49.1241C107.759 48.6674 108.27 47.9017 108.741 46.8271L109.959 44.0064L110.352 43.4019L118.286 24.3818H123L113.18 47.6331C112.525 49.245 111.792 50.521 110.98 51.4613C110.194 52.4016 109.304 53.0597 108.309 53.4358C107.34 53.8119 106.266 54 105.088 54ZM109.409 46.666L99.9421 24.3818H105.049L112.748 42.9586L109.409 46.666Z" fill="#201E1C"/>
</svg>
