<svg width="32" height="32" viewBox="0 0 32 32" fill="none" xmlns="http://www.w3.org/2000/svg">
<g clip-path="url(#clip0_2863_6161)">
<path d="M15.988 0.722656C24.412 0.722656 31.2401 7.55066 31.2401 15.9747C31.2401 24.3987 24.4121 31.2207 15.9941 31.2207C7.57005 31.2207 0.748051 24.3927 0.748051 15.9747C0.742051 7.55066 7.57005 0.722656 15.988 0.722656Z" fill="#8247E5"/>
<mask id="mask0_2863_6161" style="mask-type:luminance" maskUnits="userSpaceOnUse" x="5" y="7" width="21" height="18">
<path d="M25.8761 7.31641H5.89014V24.8304H25.8761V7.31641Z" fill="white"/>
</mask>
<g mask="url(#mask0_2863_6161)">
<path d="M20.986 12.6512C20.62 12.4412 20.152 12.4412 19.738 12.6512L16.822 14.3792L14.842 15.4772L11.98 17.1992C11.614 17.4092 11.146 17.4092 10.732 17.1992L8.494 15.8372C8.128 15.6272 7.87 15.2072 7.87 14.7392V12.1232C7.87 11.7032 8.08 11.2892 8.494 11.0252L10.732 9.71722C11.098 9.50722 11.566 9.50722 11.98 9.71722L14.218 11.0792C14.584 11.2892 14.842 11.7092 14.842 12.1772V13.9052L16.822 12.7532V10.9772C16.822 10.5572 16.612 10.1432 16.198 9.87922L12.034 7.41922C11.668 7.20922 11.2 7.20922 10.786 7.41922L6.52 9.93322C6.106 10.1432 5.896 10.5632 5.896 10.9772V15.8912C5.896 16.3112 6.106 16.7252 6.52 16.9892L10.738 19.4492C11.104 19.6592 11.572 19.6592 11.986 19.4492L14.848 17.7752L16.828 16.6232L19.69 14.9492C20.056 14.7392 20.524 14.7392 20.938 14.9492L23.176 16.2572C23.542 16.4672 23.8 16.8872 23.8 17.3552V19.9712C23.8 20.3912 23.59 20.8052 23.176 21.0692L20.992 22.3772C20.626 22.5872 20.158 22.5872 19.744 22.3772L17.5 21.0692C17.134 20.8592 16.876 20.4392 16.876 19.9712V18.2972L14.896 19.4492V21.1772C14.896 21.5972 15.106 22.0112 15.52 22.2752L19.738 24.7352C20.104 24.9452 20.572 24.9452 20.986 24.7352L25.204 22.2752C25.57 22.0652 25.828 21.6452 25.828 21.1772V16.2092C25.828 15.7892 25.618 15.3752 25.204 15.1112L20.986 12.6512Z" fill="white"/>
</g>
</g>
<defs>
<clipPath id="clip0_2863_6161">
<rect width="32" height="32" fill="white"/>
</clipPath>
</defs>
</svg>
