<svg width="19" height="17" viewBox="0 0 19 17" fill="none" xmlns="http://www.w3.org/2000/svg">
<path d="M13.618 7.27832C12.6395 7.27832 11.7833 7.08128 11.0494 6.68719C10.3154 6.2931 9.63591 5.84647 9.01073 5.34729C8.41273 4.84811 7.84192 4.40148 7.29828 4.00739C6.75465 3.6133 6.15665 3.41626 5.50429 3.41626C4.63448 3.41626 3.94134 3.74466 3.42489 4.40148C2.90844 5.03202 2.62303 5.88588 2.56867 6.96305L1.95023e-09 6.96305C0.0543634 4.78243 0.584406 3.16667 1.59013 2.11576C2.59585 1.03859 3.8598 0.5 5.38197 0.5C6.36051 0.5 7.21674 0.697044 7.95064 1.09113C8.68455 1.48522 9.3505 1.93186 9.9485 2.43103C10.5737 2.93021 11.1581 3.37685 11.7017 3.77094C12.2453 4.16503 12.8433 4.36207 13.4957 4.36207C14.3927 4.36207 15.0994 4.03366 15.6159 3.37685C16.1323 2.72003 16.4041 1.85304 16.4313 0.775863L19 0.775863C18.9456 2.95649 18.4156 4.58539 17.4099 5.66256C16.4313 6.73974 15.1674 7.27833 13.618 7.27832ZM13.618 16.5C12.6395 16.5 11.7833 16.3161 11.0494 15.9483C10.3154 15.5542 9.63591 15.1076 9.01073 14.6084C8.41273 14.1092 7.84192 13.6626 7.29828 13.2685C6.75465 12.8744 6.15665 12.6773 5.50429 12.6773C4.63448 12.6773 3.94134 13.0057 3.42489 13.6626C2.90844 14.2931 2.62303 15.147 2.56867 16.2241L-1.20584e-08 16.2241C0.0543634 14.0435 0.584406 12.4277 1.59013 11.3768C2.59585 10.2997 3.8598 9.76108 5.38197 9.76108C6.36051 9.76108 7.21674 9.95813 7.95064 10.3522C8.68455 10.7463 9.3505 11.1929 9.9485 11.6921C10.5737 12.1913 11.1581 12.6379 11.7017 13.032C12.2453 13.4261 12.8433 13.6232 13.4957 13.6232C14.3927 13.6232 15.0994 13.2947 15.6159 12.6379C16.1323 11.9811 16.4041 11.1141 16.4313 10.0369L19 10.0369C18.9456 12.2176 18.4156 13.8465 17.4099 14.9236C16.4313 15.9745 15.1674 16.5 13.618 16.5Z" fill="black"/>
</svg>
