<svg width="16" height="19" viewBox="0 0 16 19" fill="none" xmlns="http://www.w3.org/2000/svg">
<path d="M9.22167 13.618C9.22167 12.6395 9.41872 11.7833 9.81281 11.0494C10.2069 10.3154 10.6535 9.63591 11.1527 9.01073C11.6519 8.41273 12.0985 7.84192 12.4926 7.29828C12.8867 6.75465 13.0837 6.15665 13.0837 5.50429C13.0837 4.63448 12.7553 3.94134 12.0985 3.42489C11.468 2.90844 10.6141 2.62303 9.53695 2.56867V4.18823e-07C11.7176 0.0543639 13.3333 0.584407 14.3842 1.59013C15.4614 2.59585 16 3.8598 16 5.38197C16 6.36052 15.803 7.21674 15.4089 7.95064C15.0148 8.68455 14.5681 9.3505 14.069 9.9485C13.5698 10.5737 13.1232 11.1581 12.7291 11.7017C12.335 12.2453 12.1379 12.8433 12.1379 13.4957C12.1379 14.3927 12.4663 15.0994 13.1232 15.6159C13.78 16.1323 14.647 16.4041 15.7241 16.4313V19C13.5435 18.9456 11.9146 18.4156 10.8374 17.4099C9.76026 16.4313 9.22167 15.1674 9.22167 13.618ZM0 13.618C4.13428e-08 12.6395 0.183908 11.7833 0.551725 11.0494C0.945813 10.3154 1.39245 9.63591 1.89163 9.01073C2.39081 8.41273 2.83744 7.84192 3.23153 7.29828C3.62562 6.75465 3.82266 6.15665 3.82266 5.50429C3.82266 4.63448 3.49425 3.94134 2.83744 3.42489C2.2069 2.90844 1.35304 2.62303 0.275863 2.56867L0.275863 0C2.45649 0.0543635 4.07225 0.584406 5.12315 1.59013C6.20033 2.59585 6.73892 3.8598 6.73892 5.38197C6.73892 6.36051 6.54187 7.21674 6.14778 7.95064C5.75369 8.68455 5.30706 9.3505 4.80788 9.9485C4.3087 10.5737 3.86207 11.1581 3.46798 11.7017C3.07389 12.2453 2.87685 12.8433 2.87685 13.4957C2.87685 14.3927 3.20525 15.0994 3.86207 15.6159C4.51888 16.1323 5.38588 16.4041 6.46305 16.4313V19C4.28243 18.9456 2.65353 18.4156 1.57635 17.4099C0.525451 16.4313 -6.54594e-08 15.1674 0 13.618Z" fill="black"/>
</svg>
