<svg width="35" height="35" viewBox="0 0 35 35" fill="none" xmlns="http://www.w3.org/2000/svg">
<g id="telegram-logo-2 1" clip-path="url(#clip0_2177_2709)">
<path id="Vector" d="M34.1007 2.63313C33.7444 2.3226 33.3108 2.11637 32.8467 2.03679C32.3826 1.95721 31.9058 2.00729 31.4679 2.18163L1.64034 14.0099C1.12043 14.2161 0.680644 14.5866 0.386777 15.0661C0.0929093 15.5456 -0.0392358 16.1083 0.0101143 16.6699C0.0594644 17.2316 0.287656 17.762 0.660545 18.1818C1.03343 18.6016 1.53097 18.8882 2.07871 18.9988L9.65514 20.5284V30.0807C9.65471 30.5972 9.8061 31.1021 10.0902 31.5316C10.3742 31.9612 10.7782 32.2959 11.2509 32.4936C11.7236 32.6912 12.2437 32.7428 12.7455 32.6418C13.2472 32.5409 13.708 32.2919 14.0695 31.9264L18.2624 27.6941L24.6262 33.347C25.0947 33.7669 25.6994 33.9992 26.3259 34C26.5983 33.9997 26.869 33.9564 27.1281 33.8716C27.5555 33.7348 27.9398 33.4872 28.2428 33.1536C28.5458 32.8201 28.7569 32.4121 28.8549 31.9705L34.9339 5.19426C35.0398 4.73125 35.0181 4.24783 34.8712 3.79637C34.7243 3.34492 34.4579 2.94264 34.1007 2.63313ZM26.3344 31.3874L13.0184 19.559L32.1934 5.5802L26.3344 31.3874Z" fill="#195946"/>
</g>
<defs>
<clipPath id="clip0_2177_2709">
<rect width="35" height="35" fill="white"/>
</clipPath>
</defs>
</svg>
