<svg width="35" height="35" viewBox="0 0 35 35" fill="none" xmlns="http://www.w3.org/2000/svg">
<path d="M34.8779 6.52531C33.7792 7.03774 32.5235 7.35308 31.3463 7.55017C31.9349 7.47133 32.7589 6.40705 33.1121 6.01288C33.6222 5.38219 34.0539 4.63326 34.2893 3.8449C34.3286 3.76607 34.3286 3.68723 34.2893 3.64781C34.2108 3.6084 34.1716 3.64781 34.0931 3.64781C32.7589 4.35733 31.3855 4.90918 29.8944 5.26394C29.7767 5.30336 29.6982 5.26394 29.6197 5.18511C29.502 5.02743 29.3843 4.90918 29.2666 4.79093C28.6387 4.2785 27.9716 3.8449 27.2261 3.52956C26.245 3.13538 25.1463 2.9383 24.0868 3.01713C23.0666 3.09597 22.0463 3.37189 21.1438 3.8449C20.2413 4.31791 19.4172 4.98802 18.7501 5.81579C18.0831 6.64356 17.5729 7.629 17.3375 8.69328C17.1021 9.71814 17.1021 10.7036 17.259 11.7284C17.2983 11.8861 17.259 11.9255 17.1021 11.8861C11.2945 11.0583 6.50716 9.00862 2.62237 4.55442C2.46541 4.35733 2.34769 4.35733 2.22997 4.55442C0.542632 7.11657 1.36668 11.216 3.48566 13.2657C3.76034 13.5417 4.07426 13.8176 4.38818 14.0541C4.27046 14.0935 2.85781 13.9358 1.60212 13.2657C1.44516 13.1475 1.36668 13.2263 1.32744 13.4234C1.32744 13.6993 1.32744 13.9358 1.36668 14.2512C1.6806 16.8528 3.48566 19.2572 5.91856 20.1638C6.19324 20.2821 6.5464 20.4003 6.86032 20.4398C6.31096 20.558 5.72235 20.6369 4.1135 20.5186C3.9173 20.4792 3.83882 20.5974 3.9173 20.7551C5.09451 24.0662 7.68437 25.0516 9.64639 25.6035C9.92107 25.6429 10.1565 25.6429 10.4312 25.7217C10.4312 25.7612 10.392 25.7612 10.392 25.7612C9.76411 26.7466 7.52741 27.4955 6.46792 27.8503C4.58439 28.5204 2.50465 28.7963 0.503392 28.5992C0.189469 28.5598 0.110988 28.5598 0.0325077 28.5992C-0.045973 28.6387 0.032508 28.7175 0.110989 28.7963C0.503392 29.0722 0.935035 29.3088 1.36668 29.5453C2.62237 30.2154 3.95654 30.7672 5.32995 31.1614C12.4717 33.1323 20.5552 31.6738 25.9311 26.313C30.1298 22.1347 31.621 16.3403 31.621 10.5065C31.621 10.27 31.8957 10.1517 32.0526 10.0335C33.1513 9.20571 34.0146 8.22027 34.8387 7.11657C35.0349 6.88007 34.9956 6.64356 34.9956 6.56473V6.52531C34.9956 6.44647 35.0349 6.44647 34.8779 6.52531Z" fill="#195946"/>
<path fill-rule="evenodd" clip-rule="evenodd" d="M12.3909 28.5081C12.4756 28.5081 14.5078 28.5081 12.3909 28.5081C12.3627 28.5081 12.6732 28.5081 12.3909 28.5081ZM12.3909 28.5081C11.9675 28.5081 12.3627 28.5081 12.3909 28.5081V28.5081ZM13.2377 28.5363C13.2377 28.4798 13.6893 28.5363 13.2377 28.5363C13.2377 28.5081 13.2941 28.5363 13.2377 28.5363ZM22.157 7.875C22.1288 7.90323 22.1006 7.90323 22.0441 7.875C22.0723 7.875 22.1288 7.875 22.157 7.875Z" fill="#333033"/>
</svg>
