<svg width="615" height="1480" viewBox="0 0 615 1480" fill="none" xmlns="http://www.w3.org/2000/svg">
<circle cx="565" cy="50" r="50" fill="#2E5846"/>
<circle cx="50" cy="395" r="50" fill="#2E5846"/>
<circle cx="565" cy="740" r="50" fill="#2E5846"/>
<circle cx="50" cy="1085" r="50" fill="#737373"/>
<circle cx="565" cy="1430" r="50" fill="#737373"/>
<path d="M562.984 73V31.4L566.632 35.176H553.512V28.2H571.304V73H562.984Z" fill="white"/>
<path d="M33.24 418V412.432L51.032 395.536C52.5253 394.128 53.6347 392.891 54.36 391.824C55.0853 390.757 55.5547 389.776 55.768 388.88C56.024 387.941 56.152 387.067 56.152 386.256C56.152 384.208 55.448 382.629 54.04 381.52C52.632 380.368 50.5627 379.792 47.832 379.792C45.656 379.792 43.672 380.176 41.88 380.944C40.1307 381.712 38.616 382.885 37.336 384.464L31.512 379.984C33.2613 377.637 35.608 375.824 38.552 374.544C41.5387 373.221 44.8667 372.56 48.536 372.56C51.7787 372.56 54.5947 373.093 56.984 374.16C59.416 375.184 61.272 376.656 62.552 378.576C63.8747 380.496 64.536 382.779 64.536 385.424C64.536 386.875 64.344 388.325 63.96 389.776C63.576 391.184 62.8507 392.677 61.784 394.256C60.7173 395.835 59.16 397.605 57.112 399.568L41.816 414.096L40.088 410.96H66.264V418H33.24Z" fill="white"/>
<path d="M562.896 763.64C559.739 763.64 556.645 763.192 553.616 762.296C550.629 761.357 548.112 760.077 546.064 758.456L549.648 751.992C551.269 753.315 553.232 754.381 555.536 755.192C557.84 756.003 560.251 756.408 562.768 756.408C565.755 756.408 568.08 755.811 569.744 754.616C571.408 753.379 572.24 751.715 572.24 749.624C572.24 747.576 571.472 745.955 569.936 744.76C568.4 743.565 565.925 742.968 562.512 742.968H558.416V737.272L571.216 722.04L572.304 725.176H548.24V718.2H578.768V723.768L565.968 739L561.616 736.44H564.112C569.616 736.44 573.733 737.677 576.464 740.152C579.237 742.584 580.624 745.72 580.624 749.56C580.624 752.077 579.984 754.403 578.704 756.536C577.424 758.669 575.461 760.397 572.816 761.72C570.213 763 566.907 763.64 562.896 763.64Z" fill="white"/>
<path d="M30.176 1097.82V1092.06L52.256 1063.2H61.152L39.392 1092.06L35.232 1090.78H70.752V1097.82H30.176ZM54.752 1108V1097.82L55.008 1090.78V1081.76H62.816V1108H54.752Z" fill="white"/>
<path d="M563.664 1453.64C560.507 1453.64 557.413 1453.19 554.384 1452.3C551.397 1451.36 548.88 1450.08 546.832 1448.46L550.352 1441.99C551.973 1443.31 553.936 1444.38 556.24 1445.19C558.587 1446 561.019 1446.41 563.536 1446.41C566.48 1446.41 568.784 1445.79 570.448 1444.55C572.155 1443.31 573.008 1441.65 573.008 1439.56C573.008 1438.15 572.645 1436.91 571.92 1435.85C571.237 1434.78 570 1433.97 568.208 1433.42C566.459 1432.86 564.048 1432.58 560.976 1432.58H550.16L552.464 1408.2H578.768V1415.18H555.536L559.888 1411.21L558.16 1429.45L553.808 1425.54H562.832C567.269 1425.54 570.832 1426.14 573.52 1427.34C576.251 1428.49 578.235 1430.11 579.472 1432.2C580.752 1434.25 581.392 1436.59 581.392 1439.24C581.392 1441.84 580.752 1444.23 579.472 1446.41C578.192 1448.58 576.229 1450.33 573.584 1451.66C570.981 1452.98 567.675 1453.64 563.664 1453.64Z" fill="white"/>
<path d="M517 50L50.0043 51.9925" stroke="#195946" stroke-width="2" stroke-dasharray="10 10"/>
<path d="M567 395L100 397" stroke="#195946" stroke-width="2" stroke-dasharray="10 10"/>
<path d="M515 740L49.0043 742.005" stroke="#195946" stroke-width="2" stroke-dasharray="10 10"/>
<path d="M568.996 1085L102 1086.99" stroke="#195946" stroke-width="2" stroke-dasharray="10 10"/>
<path d="M515 1430H50" stroke="#195946" stroke-width="2" stroke-dasharray="10 10"/>
<line x1="568" y1="101.007" x2="566" y2="395" stroke="#2E5846" stroke-width="2" stroke-dasharray="10 10"/>
<line x1="50" y1="447" x2="50" y2="741" stroke="#2E5846" stroke-width="2" stroke-dasharray="10 10"/>
<line x1="568" y1="791" x2="568" y2="1085" stroke="#2E5846" stroke-width="2" stroke-dasharray="10 10"/>
<line x1="51" y1="1136" x2="51" y2="1430" stroke="#2E5846" stroke-width="2" stroke-dasharray="10 10"/>
</svg>
